# xmcd
#
# Track frame offsets:
#	183
#	63458
#	108083
#	146283
#	201295
#	235383
#
# Disc length: 3619 seconds
#
# Revision: 2
# Processed by: cddbd v1.4PL0 Copyright (c) Steve Scherf et al.
# Submitted via: EasyCDDAExtractor 4.5.0.2
#
DISCID=4f0e2106
DTITLE=Jerry Garcia Band - How Sweet It Is-Live In USA 1980
DYEAR=1980
DGENRE=Rock
TTITLE0=Sugaree
TTITLE1=Catfish John
TTITLE2=How Sweet It Is
TTITLE3=Sitting In Limbo
TTITLE4=That´s Allright Mama
TTITLE5=Deal
EXTD=
EXTT0=
EXTT1=
EXTT2=
EXTT3=
EXTT4=
EXTT5=
PLAYORDER=
